<svg xmlns="http://www.w3.org/2000/svg" viewBox="0 0 480 743" width="480" height="743">
  <defs>
    <linearGradient id="flameGrad" gradientUnits="userSpaceOnUse" x1="0" y1="10" x2="0" y2="735">
      <stop offset="0.00" stop-color="#211f4c"/>
      <stop offset="0.10" stop-color="#262a68"/>
      <stop offset="0.20" stop-color="#302b78"/>
      <stop offset="0.30" stop-color="#3f2c86"/>
      <stop offset="0.40" stop-color="#5b309e"/>
      <stop offset="0.50" stop-color="#7f3cb4"/>
      <stop offset="0.58" stop-color="#9c4fae"/>
      <stop offset="0.66" stop-color="#b56d94"/>
      <stop offset="0.74" stop-color="#c98d76"/>
      <stop offset="0.82" stop-color="#d7a95f"/>
      <stop offset="0.90" stop-color="#dcb457"/>
      <stop offset="1.00" stop-color="#d9a24a"/>
    </linearGradient>
  </defs>

  <g id="silhouette">
    <path d="M 271.0,20.0 C 266.882,25.207 262.272,29.568 257.312,33.941 C 255.627,35.429 254.003,36.948 252.438,38.562 C 250.207,40.84 247.866,42.991 245.5,45.125 C 244.768,45.788 244.036,46.45 243.281,47.133 C 240.93,49.058 238.618,50.47 236.0,52.0 C 233.003,54.233 230.24,56.707 227.625,59.375 C 222.187,64.898 216.186,69.65 210.062,74.375 C 204.962,78.312 200.347,82.404 195.965,87.125 C 194.196,88.813 192.514,89.919 190.399,91.115 C 187.419,93.0 184.836,95.434 182.188,97.75 C 181.876,98.019 181.876,98.019 180.302,99.382 C 177.125,102.135 173.965,104.907 170.812,107.688 C 168.304,109.898 165.745,112.028 163.143,114.126 C 158.618,117.776 154.258,121.54 150.0,125.5 C 143.649,131.399 137.024,136.903 130.16,142.195 C 129.703,142.551 129.245,142.908 128.774,143.275 C 127.912,143.944 127.045,144.607 126.171,145.262 C 124.268,146.741 123.055,147.889 121.973,150.062 C 120.726,152.546 119.374,153.276 117.0,154.688 C 111.444,158.202 106.779,162.51 102.0,167.0 C 101.34,167.0 100.68,167.0 100.0,167.0 C 99.34,168.65 98.68,170.3 98.0,172.0 C 97.264,172.447 96.528,172.895 95.77,173.355 C 90.659,176.506 85.999,179.449 82.0,184.0 C 80.68,183.67 79.36,183.34 78.0,183.0 C 72.94,171.514 72.853,161.401 73.0,149.0 C 73.33,148.67 73.66,148.34 74.0,148.0 C 74.0,142.06 74.0,136.12 74.0,130.0 C 73.835,129.835 73.835,129.835 73.0,129.0 C 72.879,121.912 73.144,115.049 74.0,108.0 C 73.143,107.925 72.286,107.85 71.402,107.773 C 64.118,106.99 58.878,105.984 54.0,100.0 C 50.595,93.191 52.239,80.468 54.062,73.188 C 55.865,68.428 58.504,65.394 63.0,63.0 C 71.593,59.752 88.722,58.538 97.485,61.502 C 99.66,62.217 101.68,62.13 103.965,62.133 C 104.93,62.134 105.895,62.135 106.889,62.137 C 107.389,62.135 107.89,62.133 108.406,62.13 C 109.929,62.125 111.452,62.13 112.975,62.137 C 113.458,62.136 113.458,62.136 115.902,62.133 C 116.784,62.132 117.666,62.131 118.574,62.129 C 120.868,62.007 122.787,61.573 125.0,61.0 C 126.332,60.912 127.669,60.869 129.004,60.867 C 129.374,60.867 129.374,60.867 131.248,60.863 C 132.012,60.867 132.776,60.871 133.562,60.875 C 134.33,60.871 135.098,60.867 135.889,60.863 C 136.258,60.864 136.258,60.864 138.129,60.867 C 138.8,60.868 139.471,60.869 140.162,60.871 C 142.0,61.0 142.0,61.0 143.409,61.502 C 145.729,62.228 147.899,62.111 150.324,62.098 C 150.83,62.096 151.337,62.095 151.858,62.093 C 153.468,62.088 155.078,62.075 156.688,62.062 C 157.782,62.057 158.876,62.053 159.971,62.049 C 167.984,62.016 167.984,62.016 169.0,61.0 C 172.078,60.975 175.156,60.957 178.235,60.945 C 179.281,60.94 180.328,60.933 181.374,60.925 C 182.881,60.912 184.388,60.907 185.895,60.902 C 186.801,60.897 187.706,60.892 188.64,60.886 C 190.707,60.986 192.09,61.303 194.0,62.0 C 195.824,61.66 195.824,61.66 197.688,61.062 C 198.31,60.868 198.933,60.673 199.574,60.473 C 200.045,60.317 200.515,60.161 201.0,60.0 C 201.224,59.412 201.449,58.824 201.68,58.219 C 203.333,55.44 205.417,54.117 208.125,52.5 C 208.616,52.197 209.108,51.893 209.614,51.581 C 213.059,49.483 216.586,47.632 220.23,45.902 C 221.979,45.011 223.523,44.005 225.125,42.875 C 229.058,40.15 233.363,39.07 238.0,38.0 C 238.33,36.68 238.66,35.36 239.0,34.0 C 239.568,33.853 240.137,33.706 240.723,33.555 C 245.985,32.026 249.39,30.159 253.371,26.418 C 255.346,24.699 257.351,23.715 259.723,22.652 C 261.482,21.754 262.647,20.418 264.0,19.0 C 267.466,17.588 266.855,17.927 271.0,20.0 Z" />

    <path d="M 355.0,31.0 C 355.66,31.165 355.66,31.165 359.0,32.0 C 359.33,33.32 359.66,34.64 360.0,36.0 C 359.505,36.165 359.505,36.165 357.0,37.0 C 351.537,44.585 346.124,52.18 341.0,60.0 C 345.95,60.33 350.9,60.66 356.0,61.0 C 356.33,61.33 356.66,61.66 357.0,62.0 C 363.93,62.0 370.86,62.0 378.0,62.0 C 378.33,61.67 378.66,61.34 379.0,61.0 C 382.147,60.975 385.295,60.957 388.442,60.945 C 389.51,60.94 390.578,60.933 391.645,60.925 C 397.513,60.878 403.212,60.956 409.0,62.0 C 410.479,62.192 411.958,62.381 413.438,62.562 C 414.117,62.646 414.796,62.73 415.496,62.816 C 415.992,62.877 416.489,62.938 417.0,63.0 C 417.0,63.99 417.0,64.98 417.0,66.0 C 409.664,69.139 402.263,72.109 394.836,75.026 C 393.832,75.421 392.829,75.816 391.826,76.212 C 387.02,78.107 382.224,79.958 377.297,81.523 C 372.943,82.942 368.983,84.871 364.938,87.0 C 360.98,89.07 357.089,91.024 352.883,92.543 C 349.346,93.823 346.163,95.386 342.938,97.312 C 342.678,97.465 342.678,97.465 341.367,98.239 C 337.896,100.334 334.89,102.659 331.902,105.406 C 329.428,107.48 326.771,109.187 324.062,110.938 C 318.962,114.243 314.435,117.826 310.0,122.0 C 309.34,122.0 308.68,122.0 308.0,122.0 C 305.838,126.148 304.089,130.462 302.299,134.779 C 300.774,138.394 299.071,141.67 297.0,145.0 C 292.482,153.922 289.21,163.911 287.535,173.734 C 286.655,177.462 284.9,180.697 283.0,184.0 C 278.752,181.168 278.087,176.891 277.0,172.0 C 276.547,168.292 276.404,164.607 276.312,160.875 C 276.278,159.919 276.244,158.962 276.209,157.977 C 276.128,155.651 276.058,153.326 276.0,151.0 C 273.389,153.889 270.784,156.784 268.184,159.684 C 267.158,160.825 266.124,161.96 265.09,163.094 C 260.589,168.096 256.741,173.425 253.0,179.0 C 252.684,179.47 252.368,179.939 252.043,180.423 C 250.373,182.91 248.712,185.403 247.059,187.902 C 245.65,190.03 244.224,192.146 242.785,194.254 C 242.423,194.787 242.062,195.32 241.689,195.87 C 241.001,196.884 240.309,197.895 239.614,198.904 C 236.181,203.983 234.725,208.475 234.438,214.562 C 234.377,215.689 234.313,216.815 234.246,217.941 C 234.234,218.187 234.234,218.187 234.174,219.432 C 234.0,221.0 234.0,221.0 233.493,222.884 C 232.933,225.287 232.87,227.447 232.867,229.914 C 232.867,230.377 232.867,230.377 232.863,232.719 C 232.867,233.678 232.871,234.637 232.875,235.625 C 232.871,236.592 232.867,237.559 232.863,238.555 C 232.865,239.478 232.866,240.401 232.867,241.352 C 232.868,241.773 232.868,241.773 232.871,243.909 C 233.0,246.0 233.0,246.0 234.0,248.0 C 234.504,250.501 234.802,253.033 235.125,255.562 C 235.171,255.922 235.171,255.922 235.404,257.742 C 236.018,263.021 236.076,267.766 235.0,273.0 C 231.502,273.0 230.879,272.248 228.496,269.879 C 225.539,266.165 223.705,261.754 221.698,257.476 C 220.708,255.383 219.668,253.317 218.625,251.25 C 218.083,250.167 217.542,249.083 217.0,248.0 C 214.189,257.03 212.708,265.927 212.375,275.375 C 212.339,276.296 212.302,277.217 212.264,278.167 C 212.166,280.777 212.081,283.388 212.0,286.0 C 211.977,286.623 211.953,287.245 211.929,287.887 C 211.461,300.891 213.252,312.62 218.406,324.543 C 219.021,326.052 219.534,327.57 220.031,329.121 C 220.811,331.542 221.791,333.755 223.0,336.0 C 225.89,329.763 228.228,323.774 229.5,317.0 C 230.689,310.806 232.673,305.432 235.257,299.7 C 236.091,297.792 236.865,295.865 237.633,293.93 C 247.439,269.281 247.439,269.281 252.0,267.0 C 253.288,264.7 254.14,262.545 254.75,260.0 C 255.727,256.417 257.235,253.192 258.875,249.875 C 259.12,249.372 259.364,248.87 259.616,248.352 C 261.147,245.327 262.889,242.787 265.059,240.188 C 266.464,238.415 267.5,236.492 268.562,234.5 C 269.879,232.057 271.191,229.649 272.688,227.312 C 274.0,225.0 274.0,225.0 274.875,222.203 C 275.927,218.966 277.456,216.276 279.312,213.438 C 279.623,212.954 279.934,212.47 280.253,211.971 C 281.859,209.527 283.427,207.391 285.625,205.438 C 287.84,203.427 288.832,201.409 290.062,198.688 C 295.818,186.583 305.434,176.275 314.184,166.25 C 316.773,163.281 319.274,160.251 321.75,157.188 C 327.418,150.219 333.1,143.577 339.988,137.758 C 342.156,135.863 344.169,133.865 346.188,131.812 C 351.576,126.403 355.345,123.444 363.0,122.0 C 363.0,129.415 355.628,135.935 351.035,141.262 C 347.785,145.036 344.741,148.835 342.0,153.0 C 341.34,153.0 340.68,153.0 340.0,153.0 C 339.732,153.763 339.464,154.526 339.188,155.312 C 337.998,158.004 337.029,158.971 335.0,161.0 C 334.378,162.059 333.781,163.133 333.199,164.215 C 331.17,167.83 328.788,170.971 326.188,174.188 C 322.142,179.31 318.757,184.554 315.574,190.242 C 314.19,192.709 312.667,195.044 311.062,197.375 C 305.404,205.72 300.596,214.611 296.155,223.654 C 294.441,227.14 292.662,230.583 290.812,234.0 C 290.345,234.866 289.877,235.732 289.395,236.625 C 288.0,239.0 288.0,239.0 286.465,240.945 C 284.693,243.431 283.749,246.021 282.75,248.875 C 280.905,253.905 278.786,258.716 276.375,263.5 C 276.23,263.787 276.23,263.787 275.499,265.242 C 274.227,267.732 272.918,270.132 271.445,272.512 C 269.789,275.362 268.638,278.228 267.5,281.312 C 267.283,281.887 267.066,282.462 266.842,283.054 C 265.937,285.454 265.051,287.858 264.188,290.273 C 262.836,294.037 261.255,297.559 259.438,301.125 C 256.904,306.109 255.28,310.595 254.164,316.055 C 253.027,321.21 251.35,326.102 249.562,331.062 C 249.263,331.909 248.963,332.755 248.654,333.627 C 247.275,337.508 245.861,341.369 244.375,345.211 C 243.295,348.072 242.489,350.887 241.823,353.868 C 240.08,361.537 237.214,368.638 234.062,375.812 C 233.851,376.294 233.64,376.776 233.423,377.272 C 225.357,395.591 225.357,395.591 219.625,403.625 C 219.234,404.179 218.843,404.734 218.441,405.305 C 215.228,409.801 211.764,413.952 208.0,418.0 C 207.188,418.901 206.377,419.804 205.566,420.707 C 199.32,427.621 192.827,434.278 186.25,440.875 C 185.85,441.277 185.451,441.679 185.039,442.094 C 181.164,445.989 177.276,449.817 173.105,453.398 C 168.349,457.495 163.915,461.899 159.479,466.335 C 158.046,467.767 156.604,469.19 155.162,470.613 C 154.244,471.528 153.327,472.444 152.41,473.359 C 152.196,473.57 152.196,473.57 151.11,474.638 C 149.079,476.684 147.773,478.227 147.0,481.0 C 146.547,481.116 146.093,481.232 145.626,481.352 C 143.755,482.098 143.16,482.761 141.984,484.371 C 141.624,484.858 141.263,485.345 140.892,485.847 C 140.703,486.109 140.703,486.109 139.75,487.438 C 139.355,487.977 138.96,488.516 138.554,489.071 C 137.36,490.708 136.178,492.352 135.0,494.0 C 134.664,494.467 134.327,494.935 133.98,495.417 C 131.945,498.25 129.965,501.117 128.0,504.0 C 127.572,504.594 127.144,505.189 126.703,505.801 C 123.08,511.106 120.834,516.97 118.498,522.922 C 116.103,528.99 116.103,528.99 114.422,531.652 C 112.805,534.322 111.826,536.919 110.875,539.875 C 110.787,540.139 110.787,540.139 110.344,541.473 C 109.437,544.291 108.794,546.91 108.562,549.875 C 108.099,553.947 105.991,556.323 103.0,559.0 C 97.37,563.277 91.2,566.636 85.0,570.0 C 82.661,571.323 80.329,572.659 78.0,574.0 C 77.34,573.34 76.68,572.68 76.0,572.0 C 77.587,534.413 77.587,534.413 86.0,526.0 C 86.492,524.496 86.921,522.971 87.312,521.438 C 88.607,516.861 90.466,513.107 92.875,509.027 C 93.85,507.27 94.505,505.73 95.062,503.812 C 96.036,500.893 97.309,498.911 99.07,496.43 C 100.0,495.0 100.0,495.0 100.875,492.562 C 101.99,490.022 103.095,488.658 104.938,486.625 C 106.945,484.387 108.322,482.585 109.312,479.75 C 112.013,472.654 118.291,466.543 123.688,461.375 C 126.169,458.99 127.989,456.606 129.812,453.688 C 134.533,446.297 141.27,439.252 149.0,435.0 C 149.66,435.0 150.32,435.0 151.0,435.0 C 151.099,434.409 151.198,433.818 151.3,433.209 C 152.137,430.569 153.179,429.522 155.203,427.652 C 155.529,427.35 155.529,427.35 157.176,425.818 C 157.86,425.198 158.545,424.577 159.25,423.938 C 159.919,423.313 160.588,422.688 161.277,422.045 C 166.748,417.01 166.748,417.01 169.824,415.27 C 172.097,413.943 173.095,412.9 174.562,410.75 C 177.621,406.458 180.881,402.354 184.188,398.25 C 185.707,396.363 187.226,394.476 188.729,392.575 C 189.705,391.366 190.736,390.201 191.789,389.059 C 193.686,385.833 193.841,382.493 194.188,378.812 C 194.265,378.049 194.343,377.286 194.422,376.5 C 194.633,374.335 194.82,372.168 195.0,370.0 C 195.043,369.532 195.043,369.532 195.262,367.164 C 195.733,357.896 190.403,351.931 184.618,345.3 C 182.681,343.076 180.897,340.957 179.453,338.379 C 177.851,335.755 176.146,334.116 173.812,332.125 C 173.42,331.787 173.028,331.449 172.624,331.101 C 171.816,330.404 171.005,329.71 170.192,329.019 C 168.358,327.451 166.557,325.848 164.75,324.25 C 162.592,322.354 160.421,320.538 158.125,318.812 C 156.0,317.0 156.0,317.0 155.062,315.0 C 153.927,312.863 153.416,312.511 151.422,311.312 C 147.285,308.64 143.78,305.351 140.188,302.0 C 139.508,301.384 138.828,300.768 138.127,300.133 C 137.804,299.832 137.804,299.832 136.168,298.312 C 135.583,297.772 134.998,297.232 134.395,296.676 C 132.83,294.795 132.403,293.39 132.0,291.0 C 129.18,289.389 127.251,288.768 124.0,289.0 C 123.648,289.3 123.648,289.3 121.867,290.816 C 119.132,293.004 116.288,294.47 113.125,295.938 C 101.596,301.5 101.596,301.5 99.027,305.523 C 97.781,307.314 96.616,307.941 94.688,308.938 C 92.488,310.128 90.559,311.28 88.688,312.938 C 83.652,317.17 77.083,319.632 71.0,322.0 C 70.67,320.68 70.34,319.36 70.0,318.0 C 71.968,315.735 73.944,313.477 75.926,311.224 C 76.643,310.407 77.357,309.589 78.07,308.769 C 83.347,302.699 88.86,297.197 95.0,292.0 C 95.66,292.0 96.32,292.0 97.0,292.0 C 97.266,291.419 97.531,290.837 97.805,290.238 C 101.155,283.965 106.776,279.153 112.133,274.609 C 114.555,272.522 116.775,270.294 119.0,268.0 C 119.66,268.0 120.32,268.0 121.0,268.0 C 121.257,267.417 121.515,266.835 121.78,266.234 C 123.106,263.806 124.56,262.197 126.52,260.25 C 127.212,259.559 127.905,258.868 128.619,258.156 C 128.98,257.802 129.341,257.447 129.712,257.082 C 130.804,256.008 131.888,254.927 132.971,253.844 C 138.763,248.1 138.763,248.1 141.949,245.625 C 144.0,244.0 144.0,244.0 145.0,242.0 C 141.333,242.565 139.837,243.912 137.375,246.625 C 133.067,251.187 128.224,254.564 123.0,258.0 C 122.397,258.402 121.793,258.804 121.172,259.219 C 120.2,259.867 119.226,260.513 118.25,261.156 C 116.45,262.372 114.721,263.676 113.0,265.0 C 109.0,264.0 109.0,264.0 108.117,262.566 C 105.287,258.0 102.358,253.517 99.332,249.078 C 98.055,247.086 97.013,245.137 96.0,243.0 C 95.743,242.459 95.486,241.918 95.222,241.361 C 94.309,239.431 93.404,237.497 92.5,235.562 C 92.192,234.907 91.884,234.252 91.566,233.576 C 90.266,230.794 88.983,228.025 87.875,225.16 C 86.9,222.752 85.618,221.022 84.0,219.0 C 83.327,218.004 82.659,217.005 82.0,216.0 C 81.651,216.18 81.651,216.18 79.883,217.094 C 78.964,217.563 78.044,218.031 77.125,218.5 C 76.665,218.738 76.205,218.977 75.73,219.223 C 72.227,221.0 72.227,221.0 70.0,221.0 C 69.67,221.99 69.34,222.98 69.0,224.0 C 66.674,225.449 64.338,226.882 62.0,228.312 C 61.352,228.717 60.703,229.121 60.035,229.537 C 56.079,231.946 52.242,233.718 47.879,235.256 C 44.959,236.412 42.495,238.073 39.938,239.875 C 39.424,240.227 38.91,240.578 38.38,240.94 C 35.596,242.853 32.854,244.822 30.125,246.812 C 27.223,248.923 24.254,250.492 21.0,252.0 C 20.01,251.67 19.02,251.34 18.0,251.0 C 22.737,240.255 22.737,240.255 28.0,238.0 C 29.238,237.35 30.467,236.682 31.688,236.0 C 32.269,235.691 32.85,235.381 33.449,235.062 C 35.15,233.897 35.978,232.773 37.0,231.0 C 37.99,230.67 38.98,230.34 40.0,230.0 C 40.227,229.567 40.454,229.134 40.688,228.688 C 42.0,227.0 42.0,227.0 44.5,225.562 C 47.0,224.0 47.0,224.0 47.952,222.066 C 49.125,219.754 50.163,218.859 52.266,217.379 C 52.587,217.148 52.587,217.148 54.215,215.982 C 54.886,215.514 55.558,215.045 56.25,214.562 C 69.692,205.042 69.692,205.042 72.438,200.438 C 74.63,197.177 76.78,195.772 80.246,194.027 C 82.756,192.557 84.487,190.548 86.461,188.438 C 88.091,186.915 89.644,186.012 91.625,185.0 C 94.842,183.306 96.335,181.474 98.176,178.383 C 99.771,175.706 101.591,174.233 104.277,172.699 C 107.211,170.96 109.631,168.811 112.125,166.5 C 112.554,166.109 112.984,165.719 113.426,165.316 C 116.114,162.86 118.707,160.329 121.246,157.719 C 127.448,151.374 127.448,151.374 131.77,150.332 C 136.001,148.96 138.097,145.777 140.75,142.375 C 146.29,135.608 152.215,128.476 160.75,125.562 C 165.477,123.901 167.635,119.133 170.0,115.0 C 170.66,115.0 171.32,115.0 172.0,115.0 C 172.046,114.783 172.046,114.783 172.277,113.684 C 174.317,108.931 180.749,106.018 185.25,104.0 C 185.874,103.752 186.498,103.505 187.141,103.25 C 189.026,101.982 189.606,101.207 190.773,99.324 C 193.362,95.195 196.812,92.098 200.375,88.812 C 201.022,88.197 201.669,87.581 202.336,86.947 C 205.611,83.9 208.538,81.55 212.623,79.74 C 214.701,78.623 216.129,77.037 217.731,75.329 C 219.955,72.999 222.417,70.952 224.875,68.875 C 225.366,68.446 225.857,68.016 226.363,67.574 C 229.893,64.594 233.485,62.187 238.0,61.0 C 240.324,61.309 240.324,61.309 243.0,62.0 C 246.271,62.142 249.539,62.094 252.812,62.062 C 253.696,62.058 254.58,62.053 255.49,62.049 C 261.986,62.014 261.986,62.014 263.0,61.0 C 266.354,60.971 269.708,60.953 273.062,60.938 C 274.005,60.929 274.948,60.921 275.92,60.912 C 280.563,60.896 285.013,61.013 289.594,61.784 C 291.314,62.048 292.953,62.034 294.688,61.938 C 297.608,61.878 299.492,62.395 302.0,64.0 C 298.362,70.284 293.182,74.996 288.0,80.0 C 288.33,80.66 288.66,81.32 289.0,82.0 C 296.035,80.443 299.908,78.926 304.0,73.0 C 305.573,71.234 307.28,69.622 309.0,68.0 C 309.179,67.83 309.179,67.83 310.083,66.971 C 315.047,62.282 319.788,57.983 326.0,55.0 C 326.804,54.587 327.609,54.175 328.438,53.75 C 328.953,53.502 329.469,53.255 330.0,53.0 C 330.097,52.644 330.097,52.644 330.59,50.84 C 332.135,47.0 335.335,44.969 338.562,42.562 C 339.188,42.084 339.813,41.605 340.458,41.112 C 345.171,37.535 349.985,34.144 355.0,31.0 Z M 284.0,83.0 C 283.643,83.362 283.286,83.725 282.918,84.098 C 269.808,97.375 269.808,97.375 264.0,102.0 C 264.0,102.66 264.0,103.32 264.0,104.0 C 269.8,103.194 272.72,100.362 276.637,96.324 C 278.083,94.92 279.607,93.688 281.188,92.438 C 283.534,90.532 284.929,88.893 286.0,86.0 C 285.34,85.01 284.68,84.02 284.0,83.0 Z" />

    <path d="M 421.0,67.0 C 421.99,67.66 422.98,68.32 424.0,69.0 C 424.289,99.821 424.289,99.821 421.461,112.242 C 420.862,115.827 420.763,119.372 420.625,123.0 C 420.09,135.383 417.191,147.361 413.0,159.0 C 411.152,164.682 409.694,170.305 408.598,176.176 C 407.869,179.618 406.939,182.986 406.0,186.375 C 404.745,190.912 403.722,195.339 403.062,200.0 C 402.324,204.885 401.052,209.436 399.5,214.125 C 399.393,214.451 399.393,214.451 398.852,216.102 C 397.259,220.741 397.259,220.741 395.0,223.0 C 394.174,224.993 393.415,226.972 392.688,229.0 C 390.499,234.903 387.918,240.418 385.0,246.0 C 384.887,246.236 384.887,246.236 384.316,247.433 C 382.609,250.995 380.629,254.103 378.25,257.25 C 377.534,258.214 376.82,259.179 376.105,260.145 C 375.75,260.624 375.395,261.103 375.029,261.596 C 373.5,263.683 372.033,265.809 370.562,267.938 C 369.379,269.628 368.193,271.316 367.0,273.0 C 366.648,273.497 366.296,273.994 365.933,274.506 C 361.899,280.16 358.097,285.282 352.594,289.598 C 350.831,291.148 349.647,292.759 348.312,294.688 C 343.176,301.847 336.104,307.606 329.198,313.011 C 320.43,319.888 312.799,328.032 305.002,335.967 C 303.397,337.597 301.784,339.217 300.16,340.828 C 293.462,347.515 289.677,352.867 287.508,362.094 C 287.0,364.0 287.0,364.0 285.875,366.5 C 283.458,373.405 285.304,379.971 288.238,386.439 C 293.126,396.455 299.505,403.9 307.855,411.184 C 310.743,413.713 313.304,416.412 315.812,419.312 C 319.019,423.003 322.408,426.238 326.141,429.41 C 327.953,430.96 329.713,432.541 331.438,434.188 C 331.911,434.635 332.384,435.082 332.871,435.543 C 334.234,437.302 334.596,438.831 335.0,441.0 C 329.794,447.681 323.952,452.273 317.0,457.0 C 313.394,456.416 311.641,455.05 309.031,452.543 C 308.669,452.199 308.307,451.854 307.934,451.5 C 306.782,450.402 305.641,449.295 304.5,448.188 C 303.734,447.454 302.967,446.722 302.199,445.99 C 299.39,443.305 296.596,440.606 293.866,437.839 C 292.101,436.1 290.379,434.851 288.312,433.5 C 283.581,430.035 280.544,425.671 277.164,420.961 C 275.343,418.429 273.397,416.073 271.312,413.75 C 270.208,412.5 269.104,411.25 268.0,410.0 C 267.464,409.403 266.928,408.806 266.375,408.191 C 262.629,403.687 260.861,399.33 259.38,393.743 C 258.645,390.972 257.834,388.583 256.438,386.07 C 254.633,382.624 254.378,379.341 254.188,375.5 C 254.137,374.862 254.086,374.224 254.033,373.566 C 253.806,369.793 254.141,366.894 255.494,363.367 C 256.232,361.373 256.531,359.343 256.875,357.25 C 258.228,350.196 260.478,343.643 265.0,338.0 C 265.66,338.0 266.32,338.0 267.0,338.0 C 267.24,337.116 267.48,336.231 267.727,335.32 C 268.909,331.783 270.815,329.527 273.375,326.875 C 273.568,326.667 273.568,326.667 274.547,325.613 C 276.37,323.661 278.226,321.785 280.164,319.945 C 282.0,318.0 282.0,318.0 282.93,316.02 C 284.437,313.175 286.608,311.634 289.125,309.688 C 290.119,308.894 291.113,308.1 292.105,307.305 C 292.596,306.915 293.086,306.525 293.591,306.124 C 298.373,302.308 302.771,298.746 305.953,293.457 C 307.647,291.099 309.906,289.458 312.141,287.629 C 315.444,284.735 318.171,281.348 321.0,278.0 C 321.281,277.688 321.281,277.688 322.703,276.109 C 323.234,275.516 323.765,274.923 324.312,274.312 C 324.783,273.793 325.254,273.274 325.738,272.738 C 327.0,271.0 327.0,271.0 327.879,268.656 C 329.29,265.314 331.285,262.926 333.625,260.188 C 334.045,259.685 334.465,259.183 334.898,258.666 C 335.927,257.439 336.963,256.219 338.0,255.0 C 337.676,255.121 337.676,255.121 336.035,255.734 C 328.154,258.49 320.155,259.983 311.938,261.312 C 311.38,261.405 310.822,261.498 310.247,261.594 C 308.634,261.86 307.019,262.114 305.402,262.363 C 304.459,262.511 303.515,262.658 302.543,262.81 C 300.066,262.995 298.346,262.762 296.0,262.0 C 295.67,261.34 295.34,260.68 295.0,260.0 C 297.393,257.208 299.536,255.63 302.875,254.062 C 305.589,252.788 307.723,251.517 309.938,249.5 C 312.241,247.451 314.398,246.294 317.25,245.125 C 325.527,241.657 332.47,235.66 339.587,230.287 C 351.936,221.0 351.936,221.0 355.0,221.0 C 355.272,220.416 355.544,219.832 355.824,219.23 C 356.982,217.033 358.27,215.254 359.812,213.312 C 362.564,209.724 364.719,206.011 366.844,202.027 C 367.833,200.293 368.825,198.877 370.125,197.375 C 372.129,195.041 373.149,192.541 374.277,189.699 C 374.948,188.122 375.706,186.755 376.625,185.312 C 377.925,183.127 378.453,181.45 379.0,179.0 C 371.353,180.824 363.74,182.687 356.43,185.633 C 351.997,187.353 347.708,187.188 343.0,187.0 C 342.34,185.68 341.68,184.36 341.0,183.0 C 342.111,181.923 343.24,180.864 344.375,179.812 C 345.001,179.221 345.628,178.629 346.273,178.02 C 348.559,176.145 351.031,174.943 353.688,173.66 C 358.994,171.086 363.78,167.992 368.625,164.625 C 369.419,164.086 370.213,163.547 371.031,162.992 C 375.697,159.78 380.02,156.372 384.207,152.555 C 385.997,151.003 387.84,149.682 389.812,148.375 C 392.917,146.235 394.256,144.313 396.0,141.0 C 396.981,139.981 397.977,138.976 399.0,138.0 C 400.098,135.804 400.093,134.613 400.188,132.188 C 400.605,127.828 401.986,124.648 403.938,120.812 C 406.502,115.698 407.609,111.279 408.167,105.614 C 409.099,97.421 412.202,89.711 415.0,82.0 C 415.99,81.67 416.98,81.34 418.0,81.0 C 418.024,80.704 418.024,80.704 418.148,79.207 C 418.567,74.78 419.058,71.014 421.0,67.0 Z" />

    <path d="M 413.0,391.0 C 410.289,395.271 407.309,399.175 404.0,403.0 C 403.34,403.0 402.68,403.0 402.0,403.0 C 401.75,403.558 401.5,404.116 401.242,404.691 C 399.807,407.359 398.051,409.618 396.125,411.938 C 395.737,412.408 395.349,412.879 394.95,413.365 C 390.745,418.407 386.268,423.195 381.793,427.996 C 376.504,433.671 371.565,439.521 366.844,445.68 C 363.729,449.6 360.369,453.298 357.0,457.0 C 358.291,460.579 359.762,463.282 362.125,466.312 C 362.664,467.01 363.203,467.707 363.758,468.426 C 363.963,468.686 363.963,468.686 365.0,470.0 C 365.0,470.66 365.0,471.32 365.0,472.0 C 365.99,472.33 366.98,472.66 368.0,473.0 C 372.763,479.25 376.99,485.491 380.637,492.453 C 381.836,494.694 383.115,496.809 384.5,498.938 C 386.599,502.254 388.498,505.647 390.312,509.125 C 390.446,509.371 390.446,509.371 391.121,510.613 C 392.97,514.244 393.259,516.934 393.0,521.0 C 386.443,527.776 379.39,533.978 371.958,539.771 C 368.333,542.64 364.987,545.767 361.625,548.938 C 357.125,553.168 352.516,557.008 347.522,560.636 C 343.688,563.437 340.046,566.415 336.438,569.5 C 335.892,569.966 335.347,570.432 334.785,570.912 C 333.705,571.836 332.626,572.759 331.546,573.683 C 329.217,575.667 326.865,577.622 324.5,579.562 C 324.061,579.923 323.621,580.284 323.168,580.656 C 320.729,582.643 318.257,584.574 315.742,586.465 C 310.196,590.636 304.985,594.792 300.178,599.805 C 295.161,604.994 289.37,609.184 283.332,613.109 C 280.201,615.203 277.39,617.556 274.77,620.258 C 271.734,623.313 268.517,626.134 265.25,628.938 C 264.635,629.467 264.019,629.996 263.385,630.541 C 259.413,633.913 255.437,636.938 250.965,639.621 C 248.823,641.124 247.12,642.798 245.301,644.669 C 239.361,650.747 233.116,656.16 225.93,660.699 C 223.752,662.167 222.011,663.774 220.266,665.727 C 218.332,667.672 216.153,669.308 214.0,671.0 C 213.154,671.677 212.309,672.356 211.465,673.035 C 210.622,673.711 209.78,674.387 208.938,675.062 C 208.517,675.401 208.096,675.739 207.662,676.088 C 206.834,676.752 206.004,677.413 205.171,678.071 C 204.086,678.931 203.013,679.807 201.941,680.684 C 198.424,683.068 194.982,683.125 190.816,683.127 C 190.307,683.129 189.797,683.13 189.272,683.132 C 187.572,683.136 185.871,683.133 184.17,683.129 C 182.947,683.131 181.725,683.133 180.502,683.135 C 177.184,683.139 173.865,683.137 170.547,683.134 C 167.063,683.132 163.58,683.134 160.097,683.136 C 154.24,683.138 148.382,683.135 142.524,683.13 C 135.779,683.125 129.033,683.127 122.287,683.132 C 116.479,683.137 110.672,683.137 104.865,683.135 C 101.403,683.133 97.942,683.133 94.481,683.136 C 91.218,683.139 87.954,683.137 84.691,683.131 C 83.502,683.13 82.314,683.13 81.126,683.133 C 59.471,683.17 59.471,683.17 54.0,680.0 C 52.787,676.69 52.602,673.497 52.375,670.0 C 52.33,669.311 52.285,668.622 52.239,667.912 C 50.986,644.518 50.986,644.518 57.0,637.0 C 63.027,636.057 68.906,635.888 75.0,636.0 C 74.939,635.486 74.879,634.972 74.816,634.443 C 74.541,632.087 74.27,629.731 74.0,627.375 C 73.905,626.567 73.809,625.759 73.711,624.926 C 72.383,613.256 72.383,613.256 74.0,608.0 C 70.318,608.606 67.301,609.647 63.938,611.25 C 59.918,613.142 55.868,614.895 51.75,616.562 C 47.845,618.155 44.181,619.932 40.562,622.098 C 35.439,625.057 29.892,626.717 24.234,628.352 C 22.472,628.863 20.734,629.403 19.0,630.0 C 18.67,629.34 18.34,628.68 18.0,628.0 C 22.635,621.991 26.709,618.028 33.469,614.445 C 40.919,610.191 47.581,604.654 54.0,599.0 C 56.356,597.012 58.479,595.762 61.312,594.625 C 66.358,592.551 70.536,589.546 74.309,585.625 C 77.092,582.801 80.164,580.596 83.438,578.375 C 83.985,577.993 84.532,577.612 85.096,577.219 C 88.188,575.096 91.265,573.272 94.686,571.728 C 96.684,570.621 98.052,569.028 99.609,567.383 C 104.773,562.248 110.971,558.811 117.336,555.43 C 123.604,552.093 129.166,548.144 134.734,543.75 C 139.431,540.122 144.327,536.915 149.504,534.023 C 149.813,533.851 149.813,533.851 151.376,532.976 C 152.593,532.302 153.814,531.636 155.04,530.979 C 158.459,529.094 161.003,527.123 163.673,524.287 C 166.237,521.8 169.265,519.942 172.25,518.0 C 172.91,517.566 173.57,517.131 174.251,516.684 C 187.567,508.0 187.567,508.0 191.0,508.0 C 191.224,507.411 191.449,506.822 191.68,506.215 C 193.333,503.442 195.414,502.159 198.125,500.562 C 198.613,500.265 199.102,499.967 199.605,499.66 C 200.595,499.056 201.588,498.456 202.583,497.859 C 205.239,496.249 207.832,494.535 210.441,492.848 C 212.0,492.0 212.0,492.0 214.0,492.0 C 214.186,491.423 214.371,490.845 214.562,490.25 C 216.365,487.429 218.238,486.595 221.148,485.062 C 222.94,484.035 224.34,482.935 225.875,481.562 C 230.615,477.481 236.051,473.467 242.532,473.731 C 245.061,474.195 246.692,475.56 248.688,477.125 C 252.237,479.812 255.797,482.077 259.75,484.125 C 270.027,489.533 270.027,489.533 271.648,493.645 C 271.764,494.092 271.88,494.539 272.0,495.0 C 266.663,502.377 260.543,508.689 254.0,515.0 C 253.34,515.0 252.68,515.0 252.0,515.0 C 252.0,515.99 252.0,516.98 252.0,518.0 C 252.568,517.613 253.137,517.227 253.723,516.828 C 254.495,516.307 255.267,515.787 256.062,515.25 C 256.267,515.111 256.267,515.111 257.304,514.41 C 259.683,512.818 262.074,511.415 264.625,510.125 C 268.247,508.119 270.442,505.3 273.059,502.145 C 276.925,497.874 281.633,494.547 286.213,491.082 C 290.906,487.528 295.218,483.906 299.328,479.691 C 303.359,475.613 307.349,472.242 312.438,469.562 C 318.593,466.286 323.515,461.977 327.812,456.5 C 330.252,453.519 332.967,451.631 336.25,449.688 C 342.449,446.012 347.097,441.22 352.0,436.0 C 354.554,433.29 356.814,431.562 360.227,429.969 C 365.858,426.892 370.663,422.693 374.539,417.621 C 377.872,413.923 382.057,411.017 386.0,408.0 C 386.99,408.0 387.98,408.0 389.0,408.0 C 389.128,407.699 389.128,407.699 389.773,406.176 C 391.14,403.751 392.351,402.759 394.625,401.188 C 398.401,398.492 401.824,395.555 405.238,392.418 C 408.218,390.02 409.36,389.787 413.0,391.0 Z" />

    <path d="M 461.0,477.0 C 461.33,478.32 461.66,479.64 462.0,481.0 C 457.681,485.879 453.363,490.707 448.688,495.25 C 446.542,497.357 444.673,499.298 443.125,501.875 C 440.898,505.536 437.771,508.358 434.704,511.31 C 431.873,514.049 429.433,516.902 427.0,520.0 C 426.261,520.74 425.512,521.471 424.75,522.188 C 422.362,524.518 420.306,527.067 418.25,529.688 C 414.071,535.012 409.579,540.018 405.0,545.0 C 404.973,546.417 404.953,547.833 404.938,549.25 C 404.932,549.644 404.932,549.644 404.902,551.641 C 405.0,554.0 405.0,554.0 405.473,555.883 C 406.332,559.335 406.395,562.856 406.605,566.398 C 406.898,570.796 406.898,570.796 408.0,573.0 C 409.257,579.991 409.159,587.111 409.125,594.188 C 409.124,594.747 409.123,595.306 409.121,595.882 C 409.101,604.033 408.92,612.17 408.562,620.312 C 408.523,621.218 408.484,622.124 408.444,623.057 C 408.237,627.212 407.824,630.88 407.0,635.0 C 413.27,635.33 419.54,635.66 426.0,636.0 C 430.48,640.48 429.059,647.043 429.07,653.221 C 429.066,678.934 429.066,678.934 425.0,683.0 C 424.772,683.0 424.772,683.0 423.616,682.997 C 412.41,682.975 401.204,682.958 389.998,682.948 C 384.579,682.943 379.159,682.936 373.74,682.925 C 369.006,682.914 364.272,682.908 359.539,682.906 C 357.041,682.905 354.544,682.901 352.047,682.894 C 342.257,682.868 332.525,682.963 322.751,683.569 C 317.199,683.912 311.96,684.014 306.428,683.271 C 300.96,682.661 295.422,682.813 289.926,682.797 C 289.271,682.794 288.616,682.791 287.941,682.788 C 284.483,682.773 281.026,682.764 277.568,682.76 C 274.018,682.754 270.467,682.73 266.917,682.702 C 264.164,682.683 261.411,682.678 258.658,682.676 C 257.349,682.673 256.04,682.665 254.731,682.652 C 241.695,682.53 241.695,682.53 236.0,686.0 C 235.528,686.276 235.055,686.552 234.568,686.837 C 233.289,687.604 232.052,688.419 230.812,689.25 C 226.991,691.744 223.135,694.148 219.188,696.438 C 218.693,696.724 218.199,697.011 217.69,697.306 C 214.996,698.862 212.293,700.403 209.586,701.938 C 208.411,702.604 207.237,703.271 206.062,703.938 C 205.473,704.272 204.883,704.607 204.275,704.951 C 200.352,707.19 196.511,709.533 192.688,711.938 C 185.037,716.737 177.02,720.859 169.0,725.0 C 167.68,724.67 166.36,724.34 165.0,724.0 C 166.201,715.211 174.436,709.317 181.0,704.0 C 182.881,702.577 184.78,701.182 186.68,699.785 C 190.226,697.057 193.609,694.143 197.01,691.237 C 200.032,688.658 203.074,686.116 206.171,683.629 C 211.452,679.389 216.418,674.879 221.357,670.246 C 224.877,666.968 228.442,664.025 232.363,661.238 C 233.977,660.017 235.306,658.725 236.688,657.25 C 238.912,654.897 240.925,653.966 244.0,653.0 C 244.33,652.01 244.66,651.02 245.0,650.0 C 259.0,640.0 259.0,640.0 261.0,640.0 C 261.246,639.419 261.492,638.837 261.746,638.238 C 263.202,635.639 264.813,634.135 267.062,632.188 C 267.459,631.843 267.855,631.498 268.263,631.143 C 271.679,628.202 275.235,625.454 278.812,622.715 C 282.335,619.953 285.658,616.975 289.0,614.0 C 290.291,612.874 291.583,611.749 292.875,610.625 C 295.134,608.66 297.362,606.672 299.551,604.629 C 299.989,604.224 300.426,603.819 300.877,603.402 C 301.728,602.614 302.573,601.82 303.412,601.02 C 305.39,599.194 306.779,598.08 309.352,597.152 C 313.374,595.402 316.076,592.414 319.188,589.375 C 324.229,584.554 329.314,579.987 334.82,575.711 C 336.879,574.095 338.852,572.421 340.812,570.688 C 348.909,563.54 356.971,556.54 365.926,550.484 C 368.149,548.893 369.944,547.182 371.789,545.18 C 373.263,543.744 374.862,542.656 376.562,541.5 C 379.179,539.699 380.844,537.961 382.719,535.375 C 384.864,533.073 387.547,531.47 390.151,529.731 C 392.944,527.834 395.293,525.841 397.625,523.375 C 400.491,520.355 403.46,518.346 407.031,516.238 C 410.319,514.171 413.122,511.594 416.0,509.0 C 420.464,505.014 424.957,501.213 429.789,497.68 C 431.492,496.386 433.136,495.069 434.773,493.695 C 435.256,493.292 435.738,492.888 436.235,492.472 C 437.18,491.677 438.12,490.877 439.056,490.071 C 441.916,487.669 444.457,486.2 448.0,485.0 C 448.33,484.01 448.66,483.02 449.0,482.0 C 456.0,477.0 456.0,477.0 461.0,477.0 Z" />
  </g>

  <use href="#silhouette" fill="none" stroke="#ffffff" stroke-width="6" stroke-linejoin="round" stroke-linecap="round" paint-order="stroke"/>
  <use href="#silhouette" fill="url(#flameGrad)"/>
</svg>
